<?xml version="1.0" encoding="utf-8"?>
<!-- Generator: Adobe Illustrator 24.2.3, SVG Export Plug-In . SVG Version: 6.00 Build 0)  -->
<svg version="1.1" id="Layer_1" xmlns="http://www.w3.org/2000/svg" xmlns:xlink="http://www.w3.org/1999/xlink" x="0px" y="0px"
	 viewBox="0 0 270 47" style="enable-background:new 0 0 270 47;" xml:space="preserve">
<style type="text/css">
	.st0{fill:#D4A376;}
	.st1{fill:#FEEDD9;}
	.st2{fill:#F3D5B5;}
	.st3{fill:#E7BC91;}
	.st4{fill:#BC8A5F;}
	.st5{fill:#A47148;}
	.st6{fill:#8B5E35;}
	.st7{fill:#6F4618;}
	.st8{fill:#5F3911;}
	.st9{fill:#553311;}
	.st10{font-family:'BrushScriptMT';}
	.st11{font-size:7.6441px;}
</style>
<g>
	<path class="st0" d="M133.25,29.51h-0.35V15.45h4.8c0.88,0,1.75-0.05,2.6-0.16c0,0.17-0.01,0.48-0.04,0.92
		c-0.03,0.41-0.04,0.92-0.04,1.53c0,0.39-0.02,0.79-0.07,1.19h-0.32c-0.02-0.73-0.2-1.33-0.55-1.82c-0.36-0.49-1.11-0.73-2.26-0.73
		h-3.03v9.55c0,1.09,0.16,1.92,0.47,2.47s0.79,0.89,1.44,1.03v0.24C134.34,29.56,133.45,29.51,133.25,29.51z"/>
	<path class="st0" d="M154.57,29.51l-6.74-14.07h1.31c0.18,0.46,0.43,1.05,0.75,1.75c0.36,0.76,0.56,1.21,0.6,1.35
		c0.04,0.08,0.09,0.17,0.12,0.28l3.14,6.5c1.09,2.26,2.26,3.63,3.5,4.11v0.24C156.03,29.56,155.14,29.51,154.57,29.51z"/>
	<path class="st0" d="M161.39,15.45v14.07h-0.57c-0.22,0-0.57,0.03-1.06,0.08c-0.41,0.05-0.89,0.08-1.44,0.08v-0.24
		c0.57-0.06,1.04-0.34,1.41-0.84c0.37-0.5,0.56-1.46,0.56-2.88v-6.86c0-1.94-0.66-3.05-1.97-3.32v-0.24
		C158.89,15.35,159.91,15.4,161.39,15.45z M169.52,22c0.58-0.92,0.87-1.93,0.87-3.03c0-1.01-0.33-2.01-1-3.03
		c1.53,0.65,2.3,1.67,2.3,3.07C171.68,20.42,170.96,21.42,169.52,22z"/>
	<path class="st0" d="M191.87,29.51l-6.74-14.07h1.31c0.18,0.46,0.43,1.05,0.75,1.75c0.36,0.76,0.56,1.21,0.6,1.35
		c0.04,0.08,0.09,0.17,0.12,0.28l3.14,6.5c1.09,2.26,2.26,3.63,3.5,4.11v0.24C193.33,29.56,192.44,29.51,191.87,29.51z"/>
</g>
<rect x="82.3" y="18.53" class="st8" width="2.9" height="17.42"/>
<rect x="106.09" y="30.26" class="st8" width="2.9" height="5.68"/>
<path class="st4" d="M86.78,18.53h2.89c0,0,0.68,1.31,1.71,2.53v2.42c0,0-1.26-1.17-1.69-1.72v14.18h-2.9V18.53z"/>
<path class="st4" d="M95.53,25.34c0,0,1.91,1.57,2.94,2.13v8.47h-0.94l-0.13-7.49c0,0-1.38-0.92-1.87-1.29V25.34z"/>
<path class="st5" d="M101.69,30.37c0,0-0.26-0.05-1.22-0.39v-1.52c0,0,2.37,1.1,4.42,1.5v5.97h-3.19V30.37z"/>
<path class="st6" d="M91.64,7.14h3.09c0,0,2.05,5.87,5.08,7.51v21.3H98.9V14.83c0,0-2.65-0.69-4.39-3.28v24.39h-2.87V7.14z"/>
<rect x="75.51" y="36.64" class="st6" width="40.05" height="0.36"/>
<rect x="72.93" y="37.57" class="st8" width="45.6" height="0.76"/>
<rect x="124.4" y="31.15" class="st8" width="70.43" height="0.69"/>
<g>
	<path class="st6" d="M127.51,15.45h4.4v14.07h-0.4c-0.58,0-1.44,0.05-2.59,0.16v-0.24c0.74-0.19,1.25-0.56,1.52-1.13
		c0.27-0.56,0.4-1.49,0.4-2.8v-9.11h-3.4c-0.86,0-1.47,0.18-1.83,0.53c-0.36,0.36-0.65,1.03-0.89,2.02h-0.31
		c-0.01-0.12-0.01-0.24-0.01-0.37c0-0.18,0.02-0.41,0.05-0.68c0.11-0.95,0.16-1.81,0.16-2.59c0.47,0.06,1.06,0.1,1.76,0.12
		L127.51,15.45z"/>
	<path class="st6" d="M150.74,26.28l-1.19-2.48h-5.03l-1.27,2.48l-0.07,0.17c-0.01,0.01-0.08,0.14-0.2,0.39
		c-0.19,0.37-0.28,0.76-0.28,1.15c0,0.68,0.37,1.16,1.12,1.44v0.24c-0.15,0-0.41-0.02-0.79-0.07c-0.53-0.06-1-0.09-1.41-0.09
		c-0.38,0-0.85,0.03-1.41,0.09c-0.38,0.04-0.64,0.07-0.76,0.07v-0.24c0.98-0.5,1.87-1.53,2.67-3.08l4.43-8.62
		c-0.34-0.69-0.8-1.21-1.39-1.59c-0.59-0.37-1.28-0.58-2.07-0.61v-0.24h0.47c0.42,0,0.99,0.03,1.72,0.08
		c0.76,0.05,1.26,0.08,1.49,0.08l6.74,14.07c-0.86,0.02-1.9,0.07-3.11,0.16v-0.24c0.68-0.12,1.01-0.48,1.01-1.09
		C151.41,27.88,151.19,27.2,150.74,26.28z M145.05,22.8h4.03l-1.93-4.06L145.05,22.8z"/>
	<path class="st6" d="M162.75,29.51h-0.39V15.45c0.53,0,1.1-0.02,1.71-0.07c0.69-0.06,1.26-0.09,1.69-0.09
		c1.22,0,2.13,0.37,2.72,1.12c0.6,0.74,0.89,1.65,0.89,2.74c0,1.84-0.78,3.02-2.34,3.54c0.77,0.11,1.42,0.34,1.95,0.69
		c0.56,0.38,1.41,1.15,2.55,2.3c1.74,1.76,3.15,2.64,4.24,2.64c0.22,0,0.45-0.07,0.68-0.23l0.05,0.24
		c-0.36,0.46-0.85,0.69-1.48,0.69c-0.68,0-1.38-0.25-2.12-0.76c-0.69-0.48-1.73-1.42-3.11-2.83c-1.65-1.71-3.27-2.56-4.83-2.56
		c0.97,0.3,2.28,1.32,3.94,3.06c1.16,1.21,2.1,2.09,2.8,2.64c0.71,0.55,1.39,0.83,2.04,0.83v0.12c-0.3,0.11-0.6,0.16-0.89,0.16
		c-0.86,0-1.61-0.22-2.24-0.65c-0.34-0.24-0.77-0.61-1.29-1.1c-0.52-0.49-1.15-1.13-1.88-1.92c-1.07-1.14-1.86-1.91-2.37-2.32
		c-0.55-0.42-1.09-0.71-1.62-0.88v3.16c0,2.13,0.64,3.28,1.92,3.47v0.24C164.33,29.56,163.45,29.51,162.75,29.51z M163.47,19.12v2.9
		c0.53,0.13,1.09,0.2,1.71,0.2c2,0,3-1.04,3-3.12c0-1.95-0.99-2.92-2.98-2.92c-0.64,0-1.14,0.13-1.5,0.39
		C163.55,16.91,163.47,17.76,163.47,19.12z"/>
	<path class="st6" d="M188.04,26.28l-1.19-2.48h-5.03l-1.27,2.48l-0.07,0.17c-0.01,0.01-0.08,0.14-0.2,0.39
		c-0.19,0.37-0.28,0.76-0.28,1.15c0,0.68,0.37,1.16,1.12,1.44v0.24c-0.15,0-0.41-0.02-0.79-0.07c-0.53-0.06-1-0.09-1.41-0.09
		c-0.38,0-0.85,0.03-1.41,0.09c-0.38,0.04-0.64,0.07-0.76,0.07v-0.24c0.98-0.5,1.87-1.53,2.67-3.08l4.43-8.62
		c-0.34-0.69-0.8-1.21-1.4-1.59c-0.59-0.37-1.28-0.58-2.07-0.61v-0.24h0.47c0.42,0,0.99,0.03,1.72,0.08
		c0.76,0.05,1.26,0.08,1.49,0.08l6.74,14.07c-0.86,0.02-1.9,0.07-3.11,0.16v-0.24c0.68-0.12,1.01-0.48,1.01-1.09
		C188.71,27.88,188.49,27.2,188.04,26.28z M182.34,22.8h4.03l-1.93-4.06L182.34,22.8z"/>
</g>
<text transform="matrix(1 0 0 1 124.9662 38.2101)" class="st5 st10 st11">Let’s build future with us ..</text>
</svg>
